<svg width="188" height="55" viewBox="0 0 188 55" fill="none" xmlns="http://www.w3.org/2000/svg">
<path d="M53.792 26.552C53.792 24.888 54.152 23.408 54.872 22.112C55.592 20.8 56.592 19.784 57.872 19.064C59.168 18.328 60.632 17.96 62.264 17.96C64.264 17.96 65.976 18.488 67.4 19.544C68.824 20.6 69.776 22.04 70.256 23.864H65.744C65.408 23.16 64.928 22.624 64.304 22.256C63.696 21.888 63 21.704 62.216 21.704C60.952 21.704 59.928 22.144 59.144 23.024C58.36 23.904 57.968 25.08 57.968 26.552C57.968 28.024 58.36 29.2 59.144 30.08C59.928 30.96 60.952 31.4 62.216 31.4C63 31.4 63.696 31.216 64.304 30.848C64.928 30.48 65.408 29.944 65.744 29.24H70.256C69.776 31.064 68.824 32.504 67.4 33.56C65.976 34.6 64.264 35.12 62.264 35.12C60.632 35.12 59.168 34.76 57.872 34.04C56.592 33.304 55.592 32.288 54.872 30.992C54.152 29.696 53.792 28.216 53.792 26.552ZM74.8333 20.216C74.1133 20.216 73.5213 20.008 73.0573 19.592C72.6093 19.16 72.3853 18.632 72.3853 18.008C72.3853 17.368 72.6093 16.84 73.0573 16.424C73.5213 15.992 74.1133 15.776 74.8333 15.776C75.5373 15.776 76.1133 15.992 76.5613 16.424C77.0253 16.84 77.2573 17.368 77.2573 18.008C77.2573 18.632 77.0253 19.16 76.5613 19.592C76.1133 20.008 75.5373 20.216 74.8333 20.216ZM76.8733 21.608V35H72.7693V21.608H76.8733ZM88.0074 21.464C89.5754 21.464 90.8234 21.976 91.7514 23C92.6954 24.008 93.1674 25.4 93.1674 27.176V35H89.0874V27.728C89.0874 26.832 88.8554 26.136 88.3914 25.64C87.9274 25.144 87.3034 24.896 86.5194 24.896C85.7354 24.896 85.1114 25.144 84.6474 25.64C84.1834 26.136 83.9514 26.832 83.9514 27.728V35H79.8474V21.608H83.9514V23.384C84.3674 22.792 84.9274 22.328 85.6314 21.992C86.3354 21.64 87.1274 21.464 88.0074 21.464ZM108.643 28.088C108.643 28.472 108.619 28.872 108.571 29.288H99.2833C99.3473 30.12 99.6113 30.76 100.075 31.208C100.555 31.64 101.139 31.856 101.827 31.856C102.851 31.856 103.563 31.424 103.963 30.56H108.331C108.107 31.44 107.699 32.232 107.107 32.936C106.531 33.64 105.803 34.192 104.923 34.592C104.043 34.992 103.059 35.192 101.971 35.192C100.659 35.192 99.4913 34.912 98.4673 34.352C97.4433 33.792 96.6433 32.992 96.0673 31.952C95.4913 30.912 95.2033 29.696 95.2033 28.304C95.2033 26.912 95.4833 25.696 96.0433 24.656C96.6193 23.616 97.4193 22.816 98.4433 22.256C99.4673 21.696 100.643 21.416 101.971 21.416C103.267 21.416 104.419 21.688 105.427 22.232C106.435 22.776 107.219 23.552 107.779 24.56C108.355 25.568 108.643 26.744 108.643 28.088ZM104.443 27.008C104.443 26.304 104.203 25.744 103.723 25.328C103.243 24.912 102.643 24.704 101.923 24.704C101.235 24.704 100.651 24.904 100.171 25.304C99.7073 25.704 99.4193 26.272 99.3073 27.008H104.443ZM117.528 25.016H115.32V35H111.216V25.016H109.728V21.608H111.216V21.224C111.216 19.576 111.688 18.328 112.632 17.48C113.576 16.616 114.96 16.184 116.784 16.184C117.088 16.184 117.312 16.192 117.456 16.208V19.688C116.672 19.64 116.12 19.752 115.8 20.024C115.48 20.296 115.32 20.784 115.32 21.488V21.608H117.528V25.016ZM133.137 21.608L124.737 41.36H120.321L123.393 34.544L117.945 21.608H122.529L125.625 29.984L128.697 21.608H133.137Z" fill="white"/>
</svg>
